<mxfile host="app.diagrams.net" modified="2021-04-19T02:33:59.786Z" agent="5.0 (Windows NT 10.0; Win64; x64) AppleWebKit/537.36 (KHTML, like Gecko) Chrome/90.0.4430.72 Safari/537.36" etag="lokPd7jeuh1WH08sa_6Q" version="14.4.7" type="github">
  <diagram id="_vzSdO4paiWaXGIucQqC" name="Page-1">
    <mxGraphModel dx="782" dy="437" grid="1" gridSize="10" guides="1" tooltips="1" connect="1" arrows="1" fold="1" page="1" pageScale="1" pageWidth="850" pageHeight="1100" math="0" shadow="0">
      <root>
        <mxCell id="0" />
        <mxCell id="1" parent="0" />
        <mxCell id="utOfhiDsoG_AlEwx6CIt-6" value="" style="rounded=0;whiteSpace=wrap;html=1;" vertex="1" parent="1">
          <mxGeometry x="100" y="80" width="580" height="300" as="geometry" />
        </mxCell>
        <mxCell id="utOfhiDsoG_AlEwx6CIt-7" value="" style="rounded=0;whiteSpace=wrap;html=1;" vertex="1" parent="1">
          <mxGeometry x="130" y="120" width="520" height="250" as="geometry" />
        </mxCell>
        <mxCell id="utOfhiDsoG_AlEwx6CIt-8" value="" style="rounded=0;whiteSpace=wrap;html=1;" vertex="1" parent="1">
          <mxGeometry x="180" y="160" width="450" height="170" as="geometry" />
        </mxCell>
        <mxCell id="utOfhiDsoG_AlEwx6CIt-9" value="Page" style="text;html=1;strokeColor=none;fillColor=none;align=center;verticalAlign=middle;whiteSpace=wrap;rounded=0;" vertex="1" parent="1">
          <mxGeometry x="320" y="90" width="40" height="20" as="geometry" />
        </mxCell>
        <mxCell id="utOfhiDsoG_AlEwx6CIt-11" value="IMediator(Scope)" style="rounded=0;whiteSpace=wrap;html=1;" vertex="1" parent="1">
          <mxGeometry x="200" y="190" width="350" height="80" as="geometry" />
        </mxCell>
        <mxCell id="utOfhiDsoG_AlEwx6CIt-12" value="Service Collection" style="text;html=1;strokeColor=none;fillColor=none;align=center;verticalAlign=middle;whiteSpace=wrap;rounded=0;" vertex="1" parent="1">
          <mxGeometry x="140" y="120" width="110" height="20" as="geometry" />
        </mxCell>
        <mxCell id="utOfhiDsoG_AlEwx6CIt-13" value="Services(Singletion)&amp;nbsp;ICommonService,IClientLwpService,IDefaultCacheProvider" style="text;html=1;strokeColor=none;fillColor=none;align=left;verticalAlign=middle;whiteSpace=wrap;rounded=0;" vertex="1" parent="1">
          <mxGeometry x="200" y="160" width="380" height="20" as="geometry" />
        </mxCell>
      </root>
    </mxGraphModel>
  </diagram>
</mxfile>
